<mxfile host="app.diagrams.net" modified="2024-05-16T08:27:23.473Z" agent="Mozilla/5.0 (X11; Linux x86_64; rv:126.0) Gecko/20100101 Firefox/126.0" etag="IGJ-UN_4D-qqFCO1Sg_y" version="24.4.2" type="github">
  <diagram name="Page-1" id="lcPY9blQmOie27JDpAWG">
    <mxGraphModel dx="2049" dy="1131" grid="1" gridSize="10" guides="1" tooltips="1" connect="1" arrows="1" fold="1" page="1" pageScale="1" pageWidth="827" pageHeight="1169" math="0" shadow="0">
      <root>
        <mxCell id="0" />
        <mxCell id="1" parent="0" />
        <mxCell id="13y57F0gCtI-JH2VbQ-N-1" value="Organisateur" style="shape=umlActor;verticalLabelPosition=bottom;verticalAlign=top;html=1;outlineConnect=0;" parent="1" vertex="1">
          <mxGeometry x="190" y="280" width="50" height="100" as="geometry" />
        </mxCell>
        <mxCell id="13y57F0gCtI-JH2VbQ-N-4" value="Créer un événement" style="ellipse;whiteSpace=wrap;html=1;" parent="1" vertex="1">
          <mxGeometry x="320" y="190" width="110" height="50" as="geometry" />
        </mxCell>
        <mxCell id="13y57F0gCtI-JH2VbQ-N-5" value="&lt;div align=&quot;center&quot;&gt;Visualiser tout les évenements crées&lt;/div&gt;" style="ellipse;whiteSpace=wrap;html=1;align=center;" parent="1" vertex="1">
          <mxGeometry x="320" y="250" width="120" height="50" as="geometry" />
        </mxCell>
        <mxCell id="13y57F0gCtI-JH2VbQ-N-6" value="Ajouter des participants" style="ellipse;whiteSpace=wrap;html=1;" parent="1" vertex="1">
          <mxGeometry x="325" y="310" width="110" height="50" as="geometry" />
        </mxCell>
        <mxCell id="13y57F0gCtI-JH2VbQ-N-7" value="Ajouter un lieu et une date" style="ellipse;whiteSpace=wrap;html=1;" parent="1" vertex="1">
          <mxGeometry x="320" y="370" width="110" height="50" as="geometry" />
        </mxCell>
        <mxCell id="13y57F0gCtI-JH2VbQ-N-8" value="Ajouter une catégorie" style="ellipse;whiteSpace=wrap;html=1;" parent="1" vertex="1">
          <mxGeometry x="320" y="430" width="110" height="50" as="geometry" />
        </mxCell>
        <mxCell id="13y57F0gCtI-JH2VbQ-N-9" value="Gestion des partenaires" style="ellipse;whiteSpace=wrap;html=1;" parent="1" vertex="1">
          <mxGeometry x="320" y="490" width="110" height="50" as="geometry" />
        </mxCell>
        <mxCell id="13y57F0gCtI-JH2VbQ-N-14" value="" style="endArrow=none;html=1;rounded=0;entryX=0;entryY=0.5;entryDx=0;entryDy=0;" parent="1" target="13y57F0gCtI-JH2VbQ-N-4" edge="1">
          <mxGeometry width="50" height="50" relative="1" as="geometry">
            <mxPoint x="230" y="310" as="sourcePoint" />
            <mxPoint x="280" y="260" as="targetPoint" />
          </mxGeometry>
        </mxCell>
        <mxCell id="13y57F0gCtI-JH2VbQ-N-15" value="" style="endArrow=none;html=1;rounded=0;" parent="1" source="13y57F0gCtI-JH2VbQ-N-1" edge="1">
          <mxGeometry width="50" height="50" relative="1" as="geometry">
            <mxPoint x="270" y="330" as="sourcePoint" />
            <mxPoint x="320" y="280" as="targetPoint" />
          </mxGeometry>
        </mxCell>
        <mxCell id="13y57F0gCtI-JH2VbQ-N-16" value="" style="endArrow=none;html=1;rounded=0;" parent="1" source="13y57F0gCtI-JH2VbQ-N-1" edge="1">
          <mxGeometry width="50" height="50" relative="1" as="geometry">
            <mxPoint x="275" y="380" as="sourcePoint" />
            <mxPoint x="325" y="330" as="targetPoint" />
          </mxGeometry>
        </mxCell>
        <mxCell id="13y57F0gCtI-JH2VbQ-N-17" value="" style="endArrow=none;html=1;rounded=0;entryX=0;entryY=0.5;entryDx=0;entryDy=0;" parent="1" source="13y57F0gCtI-JH2VbQ-N-1" target="13y57F0gCtI-JH2VbQ-N-7" edge="1">
          <mxGeometry width="50" height="50" relative="1" as="geometry">
            <mxPoint x="260" y="390" as="sourcePoint" />
            <mxPoint x="310" y="340" as="targetPoint" />
          </mxGeometry>
        </mxCell>
        <mxCell id="13y57F0gCtI-JH2VbQ-N-18" value="" style="endArrow=none;html=1;rounded=0;" parent="1" source="13y57F0gCtI-JH2VbQ-N-1" edge="1">
          <mxGeometry width="50" height="50" relative="1" as="geometry">
            <mxPoint x="270" y="500" as="sourcePoint" />
            <mxPoint x="320" y="450" as="targetPoint" />
          </mxGeometry>
        </mxCell>
        <mxCell id="13y57F0gCtI-JH2VbQ-N-19" value="" style="endArrow=none;html=1;rounded=0;" parent="1" source="13y57F0gCtI-JH2VbQ-N-1" edge="1">
          <mxGeometry width="50" height="50" relative="1" as="geometry">
            <mxPoint x="220" y="460" as="sourcePoint" />
            <mxPoint x="320" y="506" as="targetPoint" />
          </mxGeometry>
        </mxCell>
        <mxCell id="4uEnxsqoECSYvy_r-CBe-21" value="&lt;div&gt;Evenement&lt;/div&gt;" style="shape=umlFrame;whiteSpace=wrap;html=1;pointerEvents=0;width=90;height=30;" vertex="1" parent="1">
          <mxGeometry x="280" y="680" width="170" height="370" as="geometry" />
        </mxCell>
        <mxCell id="4uEnxsqoECSYvy_r-CBe-22" value="&lt;div&gt;Manager&lt;/div&gt;" style="shape=umlActor;verticalLabelPosition=bottom;verticalAlign=top;html=1;" vertex="1" parent="1">
          <mxGeometry x="200" y="850" width="30" height="60" as="geometry" />
        </mxCell>
        <mxCell id="4uEnxsqoECSYvy_r-CBe-23" value="&lt;div&gt;Créer un évenement&lt;/div&gt;" style="ellipse;whiteSpace=wrap;html=1;" vertex="1" parent="1">
          <mxGeometry x="320" y="730" width="90" height="40" as="geometry" />
        </mxCell>
        <mxCell id="4uEnxsqoECSYvy_r-CBe-24" value="" style="html=1;verticalAlign=bottom;endArrow=block;curved=0;rounded=0;entryX=0;entryY=0.5;entryDx=0;entryDy=0;exitX=1;exitY=0.3333333333333333;exitDx=0;exitDy=0;exitPerimeter=0;" edge="1" parent="1" source="4uEnxsqoECSYvy_r-CBe-22" target="4uEnxsqoECSYvy_r-CBe-23">
          <mxGeometry width="80" relative="1" as="geometry">
            <mxPoint x="220" y="840" as="sourcePoint" />
            <mxPoint x="300" y="840" as="targetPoint" />
          </mxGeometry>
        </mxCell>
        <mxCell id="4uEnxsqoECSYvy_r-CBe-25" value="" style="endArrow=classic;html=1;rounded=0;exitX=1;exitY=0.3333333333333333;exitDx=0;exitDy=0;exitPerimeter=0;entryX=0;entryY=0.5;entryDx=0;entryDy=0;" edge="1" parent="1" source="4uEnxsqoECSYvy_r-CBe-22" target="4uEnxsqoECSYvy_r-CBe-26">
          <mxGeometry width="50" height="50" relative="1" as="geometry">
            <mxPoint x="500" y="990" as="sourcePoint" />
            <mxPoint x="320" y="815" as="targetPoint" />
          </mxGeometry>
        </mxCell>
        <mxCell id="4uEnxsqoECSYvy_r-CBe-26" value="&lt;div&gt;Selectionner des cuisinier&lt;/div&gt;" style="ellipse;whiteSpace=wrap;html=1;" vertex="1" parent="1">
          <mxGeometry x="312.5" y="790" width="107.5" height="60" as="geometry" />
        </mxCell>
        <mxCell id="4uEnxsqoECSYvy_r-CBe-27" value="&lt;div&gt;Choisir un lieu,&lt;/div&gt;&lt;div&gt;date, durée&lt;/div&gt;" style="ellipse;whiteSpace=wrap;html=1;" vertex="1" parent="1">
          <mxGeometry x="315" y="870" width="100" height="50" as="geometry" />
        </mxCell>
        <mxCell id="4uEnxsqoECSYvy_r-CBe-28" value="" style="endArrow=classic;html=1;rounded=0;exitX=1;exitY=0.3333333333333333;exitDx=0;exitDy=0;exitPerimeter=0;entryX=0;entryY=0.5;entryDx=0;entryDy=0;" edge="1" parent="1" source="4uEnxsqoECSYvy_r-CBe-22" target="4uEnxsqoECSYvy_r-CBe-27">
          <mxGeometry width="50" height="50" relative="1" as="geometry">
            <mxPoint x="500" y="990" as="sourcePoint" />
            <mxPoint x="550" y="940" as="targetPoint" />
          </mxGeometry>
        </mxCell>
        <mxCell id="4uEnxsqoECSYvy_r-CBe-29" value="&lt;div&gt;Selectionner un type de nourriture&lt;/div&gt;" style="ellipse;whiteSpace=wrap;html=1;" vertex="1" parent="1">
          <mxGeometry x="308.13" y="940" width="113.75" height="70" as="geometry" />
        </mxCell>
        <mxCell id="4uEnxsqoECSYvy_r-CBe-30" value="" style="endArrow=classic;html=1;rounded=0;exitX=1;exitY=0.3333333333333333;exitDx=0;exitDy=0;exitPerimeter=0;entryX=0;entryY=0.5;entryDx=0;entryDy=0;" edge="1" parent="1" source="4uEnxsqoECSYvy_r-CBe-22" target="4uEnxsqoECSYvy_r-CBe-29">
          <mxGeometry width="50" height="50" relative="1" as="geometry">
            <mxPoint x="210" y="790" as="sourcePoint" />
            <mxPoint x="260" y="740" as="targetPoint" />
          </mxGeometry>
        </mxCell>
        <mxCell id="4uEnxsqoECSYvy_r-CBe-31" value="&lt;div&gt;Application&lt;/div&gt;" style="shape=umlFrame;whiteSpace=wrap;html=1;pointerEvents=0;width=80;height=30;" vertex="1" parent="1">
          <mxGeometry x="270" y="145" width="220" height="440" as="geometry" />
        </mxCell>
      </root>
    </mxGraphModel>
  </diagram>
</mxfile>
